# xmcd
#
# Track frame offsets:
#	150
#	21401
#	39777
#	51648
#	64813
#	78211
#	97558
#	112904
#	125827
#	141848
#	155480
#	173156
#	188785
#	200458
#	221715
#	240102
#	253748
#	266894
#	286947
#	298148
#	315237
#
# Disc length: 4390 seconds
# Revision: 0
# Processed by: cddbd v1.5.2PL0 Copyright (c) Steve Scherf et al.
# Submitted via: dBpowerAMP V12.0
#
DISCID=2e112415
DTITLE=Walter "Furry" Lewis - Walter Furry Lewis Collection 1927-61, Disc 2
DYEAR=1959
DGENRE=Blues
TTITLE0=I Will Turn Your Money Green
TTITLE1=Pearlee Blues
TTITLE2=Longing Blues
TTITLE3=The Medicine Shows
TTITLE4=Casey Jones
TTITLE5=East St. Louis Blues
TTITLE6=When My Baby Left Me
TTITLE7=Shake 'Em On Down
TTITLE8=Big Chief Blues
TTITLE9=Old Blue
TTITLE10=Back On My Feet Again
TTITLE11=White Lightnin'
TTITLE12=Roberta
TTITLE13=St. Louis Blues
TTITLE14=Baby You Don't Want Me
TTITLE15=Done Changed My Mind
TTITLE16=Gion' To Kansas City
TTITLE17=This TIme Tomorrow
TTITLE18=Frankie And johnnie
TTITLE19=Longing Blues
TTITLE20=Long Tall Gal Blues
EXTD=
EXTT0=
EXTT1=
EXTT2=
EXTT3=
EXTT4=
EXTT5=
EXTT6=
EXTT7=
EXTT8=
EXTT9=
EXTT10=
EXTT11=
EXTT12=
EXTT13=
EXTT14=
EXTT15=
EXTT16=
EXTT17=
EXTT18=
EXTT19=
EXTT20=
PLAYORDER=
